<svg width="51" height="50" viewBox="0 0 51 50" fill="none" xmlns="http://www.w3.org/2000/svg">
<g id="icons8-github 1">
<path id="Vector" d="M25.897 4.6875C14.679 4.6875 5.58447 13.782 5.58447 25C5.58447 34.5914 12.2345 42.625 21.1743 44.7547C20.7118 44.6445 20.2532 44.5211 19.8032 44.3805V39.7266C19.8032 39.7266 19.0415 39.9805 18.0259 39.9805C15.1845 39.9805 14.004 37.4453 13.7095 36.1719C13.5306 35.3961 13.0634 34.6609 12.5618 34.2117C11.9626 33.6773 11.6821 33.6758 11.6782 33.493C11.6704 33.1094 12.1923 33.125 12.4399 33.125C13.7095 33.125 14.672 34.4758 15.1188 35.1742C16.2259 36.8984 17.4142 37.1875 18.0259 37.1875C18.7876 37.1875 19.4454 37.0734 19.8985 36.8547C20.1079 35.3797 20.7642 34.0656 21.8345 33.125C17.0712 32.1727 13.7095 29.4406 13.7095 25C13.7095 22.7125 14.6274 20.6102 16.1571 18.9125C16.0009 18.4695 15.7407 17.5734 15.7407 16.1133C15.7407 15.1484 15.8079 13.9641 16.2485 12.8125C16.2485 12.8125 19.1454 12.8328 21.8774 15.4203C23.1384 15.0531 24.4876 14.8438 25.897 14.8438C27.3063 14.8438 28.6556 15.0531 29.9165 15.4203C32.6485 12.8328 35.5454 12.8125 35.5454 12.8125C35.9884 13.9641 36.0532 15.1484 36.0532 16.1133C36.0532 17.6875 35.8438 18.6055 35.7157 19.0016C37.1985 20.6836 38.0845 22.7531 38.0845 25C38.0845 29.4406 34.7228 32.1727 29.9595 33.125C31.2313 34.2422 31.9907 35.8695 31.9907 37.6953V44.3805C31.5407 44.5219 31.0829 44.6445 30.6196 44.7547C39.5595 42.625 46.2095 34.5914 46.2095 25C46.2095 13.782 37.1149 4.6875 25.897 4.6875ZM27.3134 45.2578C26.8454 45.2906 26.3735 45.3125 25.897 45.3125C26.3735 45.3125 26.8446 45.2898 27.3134 45.2578ZM25.897 45.3125C25.4204 45.3125 24.9485 45.2906 24.4806 45.2578C24.9493 45.2898 25.4204 45.3125 25.897 45.3125ZM24.1688 45.2344C23.2181 45.1539 22.2853 45.0086 21.3767 44.8016C22.286 45.0078 23.2181 45.1539 24.1688 45.2344Z" fill="black"/>
</g>
</svg>
