<svg width="50" height="50" viewBox="0 0 50 50" fill="none" xmlns="http://www.w3.org/2000/svg">
<g id="icons8-google 1">
<path id="Vector" d="M45.4286 20.9198H43.7505V20.8334H25.0005V29.1667H36.7744C35.0567 34.0177 30.4411 37.5 25.0005 37.5C18.0973 37.5 12.5004 31.9031 12.5004 25C12.5004 18.0969 18.0973 12.5 25.0005 12.5C28.1869 12.5 31.0859 13.7021 33.2932 15.6656L39.1859 9.77294C35.465 6.30523 30.4879 4.16669 25.0005 4.16669C13.4952 4.16669 4.16711 13.4948 4.16711 25C4.16711 36.5052 13.4952 45.8334 25.0005 45.8334C36.5057 45.8334 45.8338 36.5052 45.8338 25C45.8338 23.6031 45.69 22.2396 45.4286 20.9198Z" fill="#FFC107"/>
<path id="Vector_2" d="M6.56921 15.3031L13.414 20.3229C15.2661 15.7375 19.7515 12.5 25.0005 12.5C28.1869 12.5 31.0859 13.7021 33.2932 15.6656L39.1859 9.77294C35.465 6.30523 30.488 4.16669 25.0005 4.16669C16.9984 4.16669 10.0588 8.68439 6.56921 15.3031Z" fill="#FF3D00"/>
<path id="Vector_3" d="M25.0005 45.8333C30.3817 45.8333 35.2713 43.7739 38.9682 40.425L32.5203 34.9687C30.4286 36.5531 27.8286 37.5 25.0005 37.5C19.5817 37.5 14.9807 34.0448 13.2474 29.2229L6.45361 34.4573C9.90153 41.2041 16.9036 45.8333 25.0005 45.8333Z" fill="#4CAF50"/>
<path id="Vector_4" d="M45.4286 20.9198H43.7505V20.8333H25.0005V29.1666H36.7744C35.9494 31.4969 34.4505 33.5062 32.5172 34.9698L32.5203 34.9677L38.9682 40.4239C38.5119 40.8385 45.8338 35.4166 45.8338 25C45.8338 23.6031 45.6901 22.2396 45.4286 20.9198Z" fill="#1976D2"/>
</g>
</svg>
