<svg width="51" height="50" viewBox="0 0 51 50" fill="none" xmlns="http://www.w3.org/2000/svg">
<path d="M43.854 38.5417C43.854 41.4187 41.5228 43.75 38.6457 43.75H11.5623C8.6863 43.75 6.354 41.4187 6.354 38.5417V11.4583C6.354 8.58125 8.6863 6.25 11.5623 6.25H38.6457C41.5228 6.25 43.854 8.58125 43.854 11.4583V38.5417Z" fill="#0288D1"/>
<path d="M12.604 19.7917H17.8123V37.5H12.604V19.7917ZM15.1925 17.7083H15.1634C13.6092 17.7083 12.604 16.55 12.604 15.1031C12.604 13.625 13.6405 12.5 15.2228 12.5C16.8071 12.5 17.7832 13.625 17.8123 15.1031C17.8123 16.549 16.8071 17.7083 15.1925 17.7083ZM37.604 37.5H32.3957V28.0219C32.3957 25.7323 31.1196 24.1698 29.0707 24.1698C27.5071 24.1698 26.6613 25.224 26.2509 26.2427C26.1009 26.6073 26.1457 27.6156 26.1457 28.125V37.5H20.9373V19.7917H26.1457V22.5167C26.8967 21.3542 28.0728 19.7917 31.0811 19.7917C34.8082 19.7917 37.603 22.1354 37.603 27.3687L37.604 37.5Z" fill="white"/>
</svg>
